<svg id="Layer_1" data-name="Layer 1" xmlns="http://www.w3.org/2000/svg" viewBox="0 0 188.8 250"><defs><style>.cls-1{fill:#fff;}.cls-2{fill:#ffdd4a;}</style></defs><title>logoo</title><rect class="cls-1" x="8.37" y="9.92" width="170.8" height="170.8"/><path class="cls-2" d="M579,321.3c.34,23,.26,46.18.38,67.18l-.14-25.19c.07,12.59-.08,23.21-.43,36-.44-3.86-.09-12.16-.68-14.18,0-30.73.71-61.56,1.35-91.5C580.84,305.53,579,312.91,579,321.3Z" transform="translate(-394.23 -252.68)"/><path class="cls-2" d="M578.19,433.4c0-3.09,0-6.1,0-9.07C578.22,427.5,578.26,430.61,578.19,433.4Z" transform="translate(-394.23 -252.68)"/><path class="cls-2" d="M428.85,262.46c-3.52.08-7.06.15-10.48.17C421.81,262.49,425.33,262.48,428.85,262.46Z" transform="translate(-394.23 -252.68)"/><path class="cls-2" d="M575.84,281c-.11-1.84-.19-3.7-.25-5.59,0-5,.09-9.95.13-15.11l-32.52-.39c4.91,0,9.92,0,15,0l18-.07c0,4,0,8-.08,11.88,0,1.59-.07,3.18-.11,4.76S575.89,279.48,575.84,281Z" transform="translate(-394.23 -252.68)"/><path class="cls-2" d="M574.61,296.27c0,14.4-.18,29-.77,42.7C574.3,325.3,574.5,310.91,574.61,296.27Z" transform="translate(-394.23 -252.68)"/><path class="cls-2" d="M409.31,344.14c.12-.06.2.21.27.62a8.13,8.13,0,0,0,.15,1.14q-.24,8.73-.47,17.42c-.06-1.44-.28-2.78-.28-4.25C409.15,352.66,409.67,351.31,409.31,344.14Z" transform="translate(-394.23 -252.68)"/><path class="cls-2" d="M432.77,262.42l.37-.06,3.58-.09.43,0C435.7,262.37,434.24,262.4,432.77,262.42Z" transform="translate(-394.23 -252.68)"/><path class="cls-2" d="M409.38,336.73A1.07,1.07,0,0,0,410,336l-.24,9.84c-.05-.4-.09-.77-.15-1.07C409.44,342.58,409.65,339.17,409.38,336.73Z" transform="translate(-394.23 -252.68)"/><path class="cls-2" d="M411.14,271.07c.26,0,.28-.45.46-.56l.82.21.05,0h.21l.51,0,1,.05,2.11.1c2.84.12,5.8.24,9,.33,1-.11,3.09-.12,5.07-.35,1.18.18,2.44.33,3.78.46l-15.57-.08-4,0-2,0h-.43l-1.07-.06-.05.73,0,.41v2c0-.8,0-1.61,0-2.44,0-.28,0-.57,0-.84Z" transform="translate(-394.23 -252.68)"/><path class="cls-2" d="M570.63,431c-18.78.32-40.48-.83-58.79.33,21.47.73,51.1,1,54.27,2.87s-29.38.16-46.19.26l4.44.4a33.31,33.31,0,0,0-6.42-.18c4.44.4,13.07.77,15.53,1.39l-4,.45c11.32,1.41,32.55,1.72,43.88,3.13-23.78-2-51.57-2.72-80.87-2.92-14.65-.1-29.68-.06-44.77,0l-49,.41c-.07-10.91-.15-21.69-.22-32.26-.64-37.54-2.32-72.4-4.2-105-.12-3.08-.15-8.33-.13-14.13.06-7,.12-14.57.17-20.92q-.06-5.3-.1-10.57l11.6-.11,5.85-.06,3.5-.06,12.62-.27q12.6-.3,25.1-.78c19.77-.43,39.22-.38,59-.26l30,.2,15.35,0,24.87,0H583c0,17.07-1.72,34.75-2.3,2.3l-2.12,0-32.3.68q-13,.21-26.08.21c2-.58,10.31-.24,14.18-.67-12.84-.35-23.45-.5-36-.43l25.19-.15c-21,.12-44.2.05-67.17.39-8.41,0-15.77-1.82-27.65-.48,29.93.64,60.77,1.36,91.5,1.34l-.16,0,39.34,0c-4.11.08-8.31.19-11.93.09l13,.29,3.35.06,5.17.05,10.23.09Q579.1,275.42,579,294q-.29-7.68-.49-15.52l-.09-3.93-.09-4.91q-.07-5.85-.15-11.75l-21.7.21-17.12.1-34.46,0c-23,0-45.85-.07-67.83.23,15.28,1,35.57-.42,48.88.78l-37.49-.1-38.76-.31,2,0,1.64-.06,2.78-.14-3.33-.13-4.7-.09-9.84-.11c0,4.24,0,8.51,0,12.78,0,3.1,0,6.21.05,9.31,0,5.89.08,11.74,0,17.45l-.06,4.25c0-1.4,0-2.82.06-4.25q.12-8.91.24-17.71.11-10.75.21-21.33l11,.08c-3.49.09-7,.14-10.74.17,0,2.87,0,5.86,0,9,0,2.67,0,5.46-.07,8.4.08-.91.16-1.89.22-2.94l0-.8,0-1.07c0-.75.06-1.51.08-2.28.08-3,.17-6.33.26-9.7l4.72.1,27.09.12c-4.9,0-9.78.07-14.59.15l-16.51.34q.17,5.43.31,10.65c.05-3.37.11-6.76.16-10.18l46.44.49-29,.22-16.94-.18c-.1,11.45-.21,23.07-.31,34.79,0-.63,0-1.27,0-1.89l0,3.76q0,9.68-.1,19.45c0,5.85.27,11.59.57,17.29,0,1,0,1.93,0,2.89-.18-1.83-.37-2.72-.46.81-.55,15.05.39,31.38-.36,48.64-.2,4.53-.09,10.64.06,17.23a13.61,13.61,0,0,0,.09,3.58c0,1.42.06,2.86.1,4.29,0,3.51,0,7,.16,10.47,0-3.41-.08-6.94-.16-10.47,0-1.31,0-2.62,0-3.92a18.75,18.75,0,0,1,.35,3.78c.14-24.16.35-49.22.26-74.41.14,1.51.32,3.64.4,4.54-.13-2.48-.27-4.95-.41-7.43q0-12.21-.21-24.42c.11,2.43.26,4.68.48,6.66q0-13.51,0-27.09-.06-14.1-.13-28.26l16.65-.11,65.22.73c-11.65-.55-23.84-.8-36.25-.95,33-.25,66.06-.38,99,.17-5.94.67-14.1,1.14-17.82,2,.23.42,10.85.57,4.67.82-22.49,1.18-38.63.12-47.82,2.5-1.73.65,23.5,2.92,15.34,3.39-6.82.21-19,.42-32.15.57-3.8-.07-7.74-.09-11.81-.11a14.58,14.58,0,0,0-2.44.24c-14.25.11-27.83.12-35.34,0l-4.17-.08-2.08,0-.42,0a8.48,8.48,0,0,1-1-.51,7.64,7.64,0,0,1-.7.31l.06.27-.08,1.1,0,.58v.94l0,1.37q-.06,5.49-.12,10.94c-.21,4-.41,8.06-.61,12.05.15-.08.35-.73.5,0-.05,9.09-.11,18.11-.16,27.12-.19,3.65-.47,7-.87,10,1.32,9.79.5,32.36.69,48.05l.05,0c0,7.9,0,15.85-.07,23.9-.13,1.33-.28,2.6-.45,3.78.22,2,.23,4.08.34,5.07l-.15,4.64-.08,2.21-.05,1.09-.05.35c-.14,1.05-.28,2.06-.41,3.06a.42.42,0,0,0,.07.13,8.21,8.21,0,0,1,1.84-.48l1,0h1.47l6,0,14.15.16c16.05.23,31.85.55,47.5.93a1.15,1.15,0,0,1,.75.6c2.43-.28,5.83-.06,8-.21-.41.07-.67.16-.61.27,7.17-.36,8.51.16,14.94.34,1.45,0,2.81-.22,4.24-.28l2.12.06c7.29.95,14.54.63,22.65.66l24.29.73C563.73,430,566.19,430.64,570.63,431Z" transform="translate(-394.23 -252.68)"/><path class="cls-2" d="M409.2,365.44q-.33,11.35-.66,22.65C408.57,380,408.25,372.73,409.2,365.44Z" transform="translate(-394.23 -252.68)"/><path class="cls-2" d="M506.11,270.69c3,.4,6.35.68,10,.88l-58-.13,0-.05C473.75,271.19,496.32,272,506.11,270.69Z" transform="translate(-394.23 -252.68)"/><path class="cls-2" d="M409.58,344.76c.06.3.1.67.15,1.07v.07A8.13,8.13,0,0,1,409.58,344.76Z" transform="translate(-394.23 -252.68)"/><path class="cls-2" d="M543,262.56h1.87l-14.19.24C534.49,262.65,538.7,262.59,543,262.56Z" transform="translate(-394.23 -252.68)"/><path class="cls-2" d="M572.94,283.1q.1,14.47.22,29c-.16,12.41-.41,24.61-1,36.25C572.45,326.69,572.69,305,572.94,283.1Z" transform="translate(-394.23 -252.68)"/><path class="cls-2" d="M543.27,271.22l12.05.61-12.09-.11C544,271.57,543.35,271.37,543.27,271.22Z" transform="translate(-394.23 -252.68)"/><path class="cls-2" d="M503.39,263l2.89,0-7.42.42Z" transform="translate(-394.23 -252.68)"/><path class="cls-2" d="M563.74,275.36l0-2.23v-.55c0-.13,0-.1,0-.11h0l0,0a1.71,1.71,0,0,0,.07-.18.93.93,0,0,1,.37.17s-.11,0-.15.07c-.05.28-.09.57-.14.87C563.88,274,563.81,274.64,563.74,275.36Z" transform="translate(-394.23 -252.68)"/><path class="cls-2" d="M563.8,321.47c0,4.06,0,8-.1,11.8-.05-4.69-.09-9.5-.14-14.25A12.77,12.77,0,0,1,563.8,321.47Z" transform="translate(-394.23 -252.68)"/><path d="M423.49,345.27a13.83,13.83,0,0,0-.77,1.6,7.34,7.34,0,0,1-.88,1.59c-1.17,2.06-2.38,4.07-3.63,6.05a1.3,1.3,0,0,0-.44.88l-.77,1.1-.33.88-.44.88c-.66,1.25-1.27,2.48-1.81,3.69a23.85,23.85,0,0,0-1.38,4l-.44.66v.77l-.44.66.11-.11a.33.33,0,0,1-.11.22.33.33,0,0,0-.11.22,12.54,12.54,0,0,0-.28,2.09c0,.73,0,1.5,0,2.31v.88a3.24,3.24,0,0,1-.05.5,2.77,2.77,0,0,0-.06.6.59.59,0,0,1-.05.22.69.69,0,0,0-.06.33,2.15,2.15,0,0,0,.06.55,2,2,0,0,1,.05.33.74.74,0,0,1,.22.55v1.43c0,.15.15.37.44.66a8.72,8.72,0,0,0,.88,2.15,21.12,21.12,0,0,0,1.21,1.81l.11.22h.33l.66.77.11.33,1.43.66.66.22,1.76.77a1.49,1.49,0,0,0,.77.11,11.85,11.85,0,0,0,2.53.44,13.92,13.92,0,0,0,2.31.22c.66,0,1.39,0,2.2-.11H428a.24.24,0,0,1,.17.06.23.23,0,0,0,.16,0h.55a.65.65,0,0,0,.44.11l.22-.11a1,1,0,0,1,.66-.33l3-.44a.1.1,0,0,0,.11.11h1.32a2.26,2.26,0,0,1,.38-.27,1.07,1.07,0,0,1,.39-.17h1.21l3.3-1.1,1.1-.44a11.42,11.42,0,0,1,1.43-.44h.88l.44-.22h-.11l.77-.33h.66l.33-.33H446l.22-.11.66-.44,6.71-2.75,1.21-.44.88-.22.66-.44v.11l.88-.66,1.76-1v.11a3.75,3.75,0,0,1,.83-.55l1.15-.66,2.09-1.1v.11a1.26,1.26,0,0,1,.55-.38l.55-.17h-.11c.15-.07.31-.16.5-.27a5.33,5.33,0,0,1,.49-.28v.11l.66-.55.55-.44,1-.55,1.43-.77,4.18-3,3.14-2c.84-.55,1.77-1.23,2.8-2l2.09-1.54a.65.65,0,0,0,.55-.33l2.2-1.43a6.89,6.89,0,0,1,1.32-1,6.15,6.15,0,0,0,1.32-1V359l.88-.77.66-.44,2-1.43v.11c.51-.51,1-.93,1.37-1.26s.72-.57.94-.72v.11l.77-.66a9.83,9.83,0,0,0,1.32-1l.77-.88.66-.66h-.11a3.87,3.87,0,0,1,.88-1l1-.88.44-.11.55-.55a1.71,1.71,0,0,1,.77-.44,2.2,2.2,0,0,1,1,.28,1.44,1.44,0,0,1,.66,1.26,1.42,1.42,0,0,1-.11.5,1.41,1.41,0,0,0-.11.49l-1.1,1.1a.45.45,0,0,1-.11.33c-.15.15-.26.22-.33.22l-2.53,2.64-1.65,1.54v-.11l-1.43,1.43a15.84,15.84,0,0,1-3.41,2.75,1,1,0,0,1-.66.33l-2.2,1.65v-.11l-.88.88-.88.44V364l-1,1-5.5,3.74v-.11l-1.54,1.32-1.54,1.1a1.72,1.72,0,0,1-.77.22,2,2,0,0,1-.6.39,1.88,1.88,0,0,0-.61.38l-1,.66-.77.55-1,.77-2,1.43-4.4,2.64a33.86,33.86,0,0,1-3.19,1.76,1.91,1.91,0,0,1-.88.22l-.55.22h.11l-.77.55a.66.66,0,0,1-.33.33.31.31,0,0,1-.17.11.34.34,0,0,0-.16.11l-.11.11a35,35,0,0,1-3.79,1.82q-2.26.93-4.68,1.7a14.93,14.93,0,0,1-1.87.77l-1.65.55-2,.66-.77.33a1,1,0,0,1-.44.11h-.77a5.33,5.33,0,0,0-.49.28,1,1,0,0,1-.39.16l-2.53.55a47.19,47.19,0,0,1-8.14,1.87,3.66,3.66,0,0,1-1.54-.11,2.55,2.55,0,0,0-.77-.11,1.6,1.6,0,0,0-.66.22,1,1,0,0,1-.44.11h-1a1.43,1.43,0,0,1-.6-.11.29.29,0,0,1-.17-.05.2.2,0,0,0-.16-.06.24.24,0,0,0-.17.06.45.45,0,0,1-.27.05,1.14,1.14,0,0,1-.49.11h-.5c-.29,0-.7,0-1.21-.05a12.33,12.33,0,0,1-1.32-.17h-.66a1.48,1.48,0,0,1-.39,0,.78.78,0,0,0-.27-.06,16,16,0,0,1-9.79-4.4,11,11,0,0,1-1.38-1.59c-.25-.41-.53-.9-.82-1.49l-.22-.66V382a8.46,8.46,0,0,1-1.21-3.41.2.2,0,0,0-.06-.16.29.29,0,0,1-.05-.17c0-.29,0-.75-.05-1.37s-.08-1.27-.11-1.93-.06-1.26-.06-1.81V372c.07-.59.17-1.14.27-1.65s.21-1.06.28-1.65a5.88,5.88,0,0,0,.22-1.32v-.82a3.21,3.21,0,0,1,.11-.94.64.64,0,0,1,.22-.44L408,365l.33-.77a.35.35,0,0,1,.11-.22.49.49,0,0,1,.06-.22.54.54,0,0,0,0-.22.63.63,0,0,1,.05-.22.43.43,0,0,0,.06-.22q.11-.33.33-1.26c.15-.62.18-.94.11-.94.37-.8.62-1.34.77-1.59s.29-.5.44-.72v.11a.35.35,0,0,1,.11-.22.31.31,0,0,0,.11-.22l.88-1.65.88-1.43.77-1.43a76.79,76.79,0,0,1,4-6.6,11.74,11.74,0,0,1,.94-1.65c.47-.73.86-1.28,1.15-1.65a.35.35,0,0,1,.11-.22,2.55,2.55,0,0,0,.33-.55l.55-.77.44-.88c.07-.07.06-.09-.06-.05s.1-.2.61-.72l.66-.88.77-.77h-.11l2-3c.37-.51.71-1,1.05-1.48s.67-.94,1-1.38L429.1,330l2.09-2.09h-.11l.44-.77c0-.07,0-.09-.06-.05l.5-.5,1.1-1a1.17,1.17,0,0,0,.22-.33c.07-.14.13-.25.16-.33a1.85,1.85,0,0,1,.28-.33l.66-.88,1.76-1.87H436l.88-1,1.32-1.21,4.62-5.17,1-.66,1.21-1.32,2.31-2.2v.11l3-2.64,2.53-2.31.33-.22.44-.33.88-.88,1.21-1.1.77-.66c.37-.29.75-.58,1.16-.88a7.86,7.86,0,0,0,1-.88l2.09-1.32c0-.14.15-.36.44-.66l1.21-1,1.76-1.32,4.07-2.75v.11l.77-.66.88-.44,3.3-1.87h.11a.77.77,0,0,0,.33-.11c.29,0,.48,0,.55-.11l.66-.33a1.76,1.76,0,0,1,.49-.33,1.36,1.36,0,0,0,.5-.33l.44-.22,1.1-.33a.83.83,0,0,0,.28,0,.78.78,0,0,1,.27-.06h.44l-.11.11.55-.33.28-.27c.11-.11.2-.17.27-.17l.33-.11a1.17,1.17,0,0,1,.72-.27c.33,0,.67-.09,1-.17,1-.22,1.87-.36,2.53-.44a23.37,23.37,0,0,1,2.42-.11,1.52,1.52,0,0,0,1.1.33.1.1,0,0,0,.11.11h.22a5.23,5.23,0,0,1,.88.77l1.21,1.21a3.77,3.77,0,0,1,.61,2.26,24.67,24.67,0,0,1-.06,2.8A4.94,4.94,0,0,1,490,296l-.44,1.1a2,2,0,0,0-.11.55v1l-.44.66v.11c0,.08-.07.19-.22.33a2.55,2.55,0,0,1-.11.61,2.48,2.48,0,0,0-.11.6,47.82,47.82,0,0,1-2.31,4.95l-1.21,1.76-.55.88-1.1,1.32a1.73,1.73,0,0,1-.22.55l-1.76,2-1,1a2.89,2.89,0,0,1-1.49.33,2,2,0,0,1-1.48-.55,1.68,1.68,0,0,1-.06-1.15,4.68,4.68,0,0,1,.5-1.27l.88-1.21.55-.77,1-1.32a3.05,3.05,0,0,1,.66-.77,19.12,19.12,0,0,0,2.36-4q1.28-2.7,2-4.57.22-.54.66-1.92a16.45,16.45,0,0,0,.55-2,1.28,1.28,0,0,1,.11-.55.89.89,0,0,1,.22-.66,1.44,1.44,0,0,1-.33-.88l-.44-.66h.11l-.44-.33a1.06,1.06,0,0,1-.77-.22v.11a1.76,1.76,0,0,0-1.21,0,.46.46,0,0,0-.22.06.71.71,0,0,1-.33.05,1.9,1.9,0,0,0-.55.11,4.79,4.79,0,0,0-1,.44l-.66.33a3.58,3.58,0,0,0-1.32.66l-1.32.55h.11a5.59,5.59,0,0,1-1.32.77c-.51.22-1,.41-1.43.55a10.5,10.5,0,0,0-1.48.66l-1.6.88a19.93,19.93,0,0,0-2,1.27c-.66.48-1.36,1-2.09,1.59v-.11l-.77.66-1.43,1.32c-1,.66-1.94,1.29-2.75,1.87a30.08,30.08,0,0,0-2.42,2l-1.54,1.21-.88.55a9.82,9.82,0,0,0-.88.5,4.33,4.33,0,0,0-.66.49c-.15.15-.26.22-.33.22l.22.11a2.07,2.07,0,0,0-.38.5.94.94,0,0,1-.39.38v-.11l-.88.66-1.32,1.21-1,.88v-.11l-3.41,3.3-3.63,3.19v.33a11.4,11.4,0,0,1-1.05,1,2.34,2.34,0,0,1-.49.33.74.74,0,0,0-.22.55l-.44.44q-1.65,1.65-3.52,3.8t-3.85,4.67l-2.75,3.41-1.1,1.21-1.1,1-.44.33v.22a.31.31,0,0,1-.11.22.64.64,0,0,0-.22.44l-.55.66h.11q-1.65,2-3.36,4.13t-3.24,4.23Z" transform="translate(-394.23 -252.68)"/><path d="M495.43,367.27a17.15,17.15,0,0,0,1.1-1.65c.44-.73.84-1.43,1.21-2.09a.48.48,0,0,1,.11-.27A.56.56,0,0,0,498,363l.88-1.76.66-.88h-.11q1-1.43,2.47-3.63a44.55,44.55,0,0,0,2.37-3.85l.44-.66a2,2,0,0,0,.55-1l.11-.11c-.15-.14-.11-.33.11-.55l.44-.44h-.11c.14-.22.31-.45.49-.71l.61-.83a1.55,1.55,0,0,1,.22-.88.36.36,0,0,0,.22-.33l1.43-2,1.32-1.87c.36-.8.71-1.5,1-2.09a10.35,10.35,0,0,1,1-1.54l1.32-1.54h-.11l.66-1.21a2.3,2.3,0,0,1,.27-.22,5.78,5.78,0,0,0,.83-1.21l.55-1.1a1.28,1.28,0,0,1,.11-.55l.77-1.21a6.26,6.26,0,0,1,1.1-1.65,2.74,2.74,0,0,0,.33-.49,17.15,17.15,0,0,0,.77-1.82l.77-.77c-.15-.36,0-.77.44-1.21l.11-.33.55-.77,1.32-1.87,1.21-2,.66-1.1a20.18,20.18,0,0,0,1.21-2l.77-1.43a2.71,2.71,0,0,1,.22-.38c.07-.11.14-.24.22-.39l.77-1.76a35.8,35.8,0,0,0,1.65-3.3,4,4,0,0,0,.38-.49,2.35,2.35,0,0,1,.61-.61l.33-.44.22-.66c.14-.14.18-.25.11-.33s.14-.36.66-.88h-.11l.44-1.21a7.76,7.76,0,0,0,.71-.93,7.65,7.65,0,0,1,.72-.94l-.33-.22.49-1.43a6.61,6.61,0,0,1,.72-1.43c.14-.36.29-.69.44-1s.29-.62.44-1l.33-.77.77-2.2a14.86,14.86,0,0,0,1-2.14c.22-.62.4-1.23.55-1.82l1.32-4.07a2.37,2.37,0,0,1,1-1.32,2.94,2.94,0,0,1,1.6-.55,1.61,1.61,0,0,1,.66.11,2.33,2.33,0,0,1,1.43,1.16,2.12,2.12,0,0,1,.44,1.37,13.12,13.12,0,0,0-.44,1.87c-.22.74-.53,1.63-.94,2.7s-.79,2-1.15,2.69l-2.2,5.83a5.85,5.85,0,0,0-.88,1.65l-.44,1a14.43,14.43,0,0,0-.72,1.43c-.25.59-.46,1.07-.6,1.43a3.15,3.15,0,0,1-.77,1.21h.11l-1.65,3.74-.22.44.77-.77.55-.44h-.11a29.53,29.53,0,0,1,3.41-3.08,1.41,1.41,0,0,1,.66-.66l1.54-1.1v.11l1.43-1.32,1.32-1.1v.11l1-.88,1.32-1.1a4.92,4.92,0,0,0,.55-.33,6.22,6.22,0,0,0,.88-.66l3.52-2.64,1.43-1.1,1.32-1a27.55,27.55,0,0,0,3.52-2.75l.44-.22V295l.77-.66a4.68,4.68,0,0,1,.6-.33c.19-.07.42-.33.72-.77l2.31-.77.88-.66a2.62,2.62,0,0,0,1.21-.44,1,1,0,0,0,.66-.33,4.57,4.57,0,0,0,1-.44l.55-.33.66-.44,1.65-.6a16.11,16.11,0,0,1,1.65-.5,8.33,8.33,0,0,0,1-.27,3.42,3.42,0,0,0,.94-.5h.55a.76.76,0,0,0,.33,0,.69.69,0,0,1,.33-.06h1.37a1.45,1.45,0,0,1,.61.11,1.85,1.85,0,0,1,1.21.66v-.11l.88.44a2.78,2.78,0,0,1,1,.83,10.18,10.18,0,0,1,.83,1.15l.22.44v-.11l.33.55c.14.22.29.48.44.77a1.89,1.89,0,0,1,.22.66,4.69,4.69,0,0,1,.33,1.27c.07.55.14,1.15.22,1.81v3.85a13.22,13.22,0,0,1-.11,1.54l-.44,1.76-.11.33a1.07,1.07,0,0,0-.22.77.43.43,0,0,1-.06.22.63.63,0,0,0-.05.22l-.55,1.32-.22.44a1.06,1.06,0,0,0-.11.44,3.7,3.7,0,0,0-.39.77,3.63,3.63,0,0,1-.6,1l-.88,1.65v-.11l-.44,1.43-.55,1.76-1.1,1.87-.44-.11c0-.07,0,0,.05.22a.88.88,0,0,1-.05.55.89.89,0,0,0-.22.66.74.74,0,0,0-.22.55,2.55,2.55,0,0,1-.33.55.31.31,0,0,0-.11.22l-1.1,1.21h.11a12.16,12.16,0,0,0-.83,1.16,5.59,5.59,0,0,0-.6,1.26l-1.1,1.32a12.86,12.86,0,0,1-1.1,2.2l-.44.66-.55,1c-.15.15-.33.35-.55.61a3.92,3.92,0,0,0-.55.82l-.66.44a.43.43,0,0,1-.06.22c0,.08-.09.22-.16.44l-.88.55V330l-1.43,1.43h.11l-.33.44c-.59.59-1,1-1.21,1.16a3.25,3.25,0,0,1-.55.38v-.11l-.44.44a2.29,2.29,0,0,0-.66,1,13.65,13.65,0,0,1-1.43,1.27,9.72,9.72,0,0,0-1,.82l-.44.22-1,.88-1,1-.33.22c-.15.15-.35.33-.61.55l-.49.44c-1,.81-1.76,1.45-2.42,1.93l-2.42,1.7-1,.77-1.65,1-1.54.88-.77.33-1,.55c.07-.07-.11,0-.55.17a6.46,6.46,0,0,0-1,.49c-.22.15-.5.31-.83.5a3.24,3.24,0,0,0-.71.49l-.66.33-1.65.22a1.42,1.42,0,0,1-.72.33,3.82,3.82,0,0,0-.71.22l-.66.22a2,2,0,0,0-.88.22,1.84,1.84,0,0,1-.5.17,6.31,6.31,0,0,1-.93.05h-.66a.83.83,0,0,0-.28.06,1.93,1.93,0,0,1-.49,0h-1.76a1.4,1.4,0,0,1-.66-.11h-1a.54.54,0,0,1-.22-.05.75.75,0,0,0-.33-.06,1,1,0,0,1-.66-.33.41.41,0,0,1-.33-.11h-.22A.28.28,0,0,1,527,350h.11a2.54,2.54,0,0,1-1.32-.55l-1.21-.77-1.1-1.43-.88-1.54c-.08,0-.11,0-.11-.11v-.22a5.38,5.38,0,0,0-.55-1h.11q-.33-.21,0-.66a1.54,1.54,0,0,1,.66-.55v.11c.36-.36.62-.46.77-.27s.36.46.66.82v.33l.77,1.43a.52.52,0,0,1,.27.28.62.62,0,0,0,.17.27l.66.33,1,.33a4.54,4.54,0,0,1,.44.28,3.52,3.52,0,0,0,.66.38h3.41l2.2-.66a4.58,4.58,0,0,0,1.43-.44l1.65-.55h-.11l.77-.33a3.55,3.55,0,0,1,1.32-.55l1-.33,1.43-.88a6.52,6.52,0,0,0,1-.49c.29-.19.62-.39,1-.61l.33-.11a.92.92,0,0,0,.55-.33l1.1-.88.44-.22a1.91,1.91,0,0,0,.88-.55l2-1.43,1.32-1.1.77-.44v.11a21.28,21.28,0,0,1,1.54-1.59,5.77,5.77,0,0,1,1.21-.94,20.59,20.59,0,0,0,2.2-1.87l.66-.55a13.58,13.58,0,0,0,2.42-2.31c.44-.29.62-.4.55-.33l1.1-1,.66-.44-.11-.22.33-.44.88-1h-.11a2,2,0,0,1,1.21-1.1v-.11a3.53,3.53,0,0,0,.55-1,.51.51,0,0,1,.27-.27.73.73,0,0,0,.28-.17.31.31,0,0,1,.22-.11l.22-.77a9.47,9.47,0,0,0,1.65-2.42l1.87-2.42c.15-.29.42-.78.82-1.48l.94-1.6,1-1.65,1.32-2.09.44-.66c0-.29,0-.47.11-.55l1.1-1.76V309l.55-1.54.11-.22a4.18,4.18,0,0,1,.22-.82,3.11,3.11,0,0,1,.33-.61.31.31,0,0,1,.11-.22.45.45,0,0,0,.11-.33,5.24,5.24,0,0,1,.55-1.65v.11a.63.63,0,0,1,0-.22.69.69,0,0,0,.06-.33l.33-1v.11a.47.47,0,0,1,.05-.22.69.69,0,0,0,.06-.33l.27-.55c.11-.22.13-.29.06-.22a.1.1,0,0,0,.11-.11.31.31,0,0,1,.11-.22.31.31,0,0,0,.11-.22,11.92,11.92,0,0,0,0-4v.11l-.55-1.1-.55-1.21a.72.72,0,0,1-.22-.55.7.7,0,0,1-.11-.33l-.44-.44-.44-.33v.11l-.88-.33h-.33l-3.3,1a3.31,3.31,0,0,1-1.43.55l-1.1.33a.88.88,0,0,0-.28.06,1.13,1.13,0,0,1-.38,0,3.11,3.11,0,0,0-1.54.77l-1.54.44c-.22.22-.37.33-.44.33l-2.2,1.21a4.83,4.83,0,0,0-.72.44c-.18.15-.35.3-.49.44l-1.43.88v-.11l-1,1c-.08.3-.55.63-1.43,1v-.11a1.74,1.74,0,0,1-.44.33l-.44.22-.5.28a.94.94,0,0,1-.49.16l-1.32,1.1-1.32,1.1a6.63,6.63,0,0,1-1.27,1,7.45,7.45,0,0,0-1.26,1l-.77.55c.22-.14.13-.09-.28.17a5.11,5.11,0,0,0-.82.6V307c-.59.66-.88,1-.88.88s0-.07-.11,0l-1,.77c-.3.22-.63.48-1,.77a12.79,12.79,0,0,0-1,.88L540,313l-.66.44v-.11l-1.76,1.87-1,.55-1.32.88a3.4,3.4,0,0,1-.77,1.1l-1.1,1.1-.33.33h.11L532,320.63l-1.21.88-.33.44-1.1,1h.11c-.15.3-.33.63-.55,1a1.89,1.89,0,0,1-.77.77q-.23.23-.66.72a6.53,6.53,0,0,0-.66.82,19.09,19.09,0,0,0-1.6,2.64q-.7,1.44-1.26,2.64l-.55.88-2.09,3.41-1,1.54a11.1,11.1,0,0,1-1.21,2.31q-.66.66-.66,1l-.88,1.21a8.7,8.7,0,0,1-.55.72c-.22.25-.48.53-.77.82h.11c-.08.22-.19.48-.33.77a1.43,1.43,0,0,1-.22.33l-.44.88a5.38,5.38,0,0,0-1.43,2.2l-.28.55a8.9,8.9,0,0,1-.71,1.1l-1.65,2.53-.44.44-.44.55h.11c-.08.15-.17.32-.28.5s-.2.35-.27.49a.43.43,0,0,1-.06.22,1,1,0,0,0-.05.33c-.44.52-.86,1-1.27,1.54a4.41,4.41,0,0,0-.82,1.65l-2,3.08-5.06,8c-.22.37-.55.88-1,1.54a19,19,0,0,1-1.54,2l-1.1,1.65-.55.88c-.66.81-1.27,1.54-1.82,2.2s-1.08,1.36-1.59,2.09l-1.76,2.31-.55.77-1.21,1.21-.66.55.11-.11-.22.22a.33.33,0,0,1-.22.11.1.1,0,0,0-.11.11l-.55.55h-.55l-.33.22a2.27,2.27,0,0,1-.61.17,1.11,1.11,0,0,1-.6-.06,2.22,2.22,0,0,1-1.1-.82,1.87,1.87,0,0,1-.33-1.38,3.19,3.19,0,0,1,.71-2.09,4.71,4.71,0,0,1,1.71-1.65l1.65-1.87.88-.88.16-.16.28-.28,1-1.59a9.83,9.83,0,0,1,1.27-1.6H492l.55-.77c.15-.15.22-.26.22-.33l1.1-2a5.27,5.27,0,0,0,1.21-2Zm28.82-23-.11-.11h.11Z" transform="translate(-394.23 -252.68)"/><path d="M419.2,501.83a9,9,0,0,1-2.29-1.63,7,7,0,0,1-1.53-2.09,24.37,24.37,0,0,1-1-5.39q-.53-4.37-.88-9.42t-.35-7.52c0-1.19,0-2.25,0-3.19s0-1.93,0-3c0-1.27,0-2.36.09-3.28s.15-1.87.29-2.87a13.28,13.28,0,0,1,.6-2.61,9.9,9.9,0,0,1,1.1-2.11,5.9,5.9,0,0,1,1.61-1.65,7.85,7.85,0,0,1,2.35-1,11,11,0,0,1,3.1-.38,4.4,4.4,0,0,1,1.52.3,4.25,4.25,0,0,1,1.38.82,1.52,1.52,0,0,1,.56,1.1c0,.45-.31.68-.94.68a4.77,4.77,0,0,1-1.38-.44,5,5,0,0,0-1.64-.41,6.62,6.62,0,0,0-3,.67,5.55,5.55,0,0,0-2.12,1.82,8.78,8.78,0,0,0-1.16,2.66,19,19,0,0,0-.6,3.34c-.1,1.18-.15,2.39-.15,3.64l.06,3.34.06,3.13q0,2.46.38,7.38t.95,9.1q.57,4.17,1.13,5a4.78,4.78,0,0,0,2.13,1.72,7.22,7.22,0,0,0,3,.62,5.2,5.2,0,0,0,4.19-1.73,1.36,1.36,0,0,1,1.11-.76c.37,0,.56.29.56.88a2.83,2.83,0,0,1-.68,1.86,4.32,4.32,0,0,1-1.75,1.24,11,11,0,0,1-4.22.85A5.31,5.31,0,0,1,419.2,501.83Z" transform="translate(-394.23 -252.68)"/><path d="M432.75,480.53v-2.08q0-16.72,4.33-16.73a3.32,3.32,0,0,1,.83.15,14.4,14.4,0,0,0,2.46.64l1.31.24c.79.13,1.55.9,2.29,2.31a17.54,17.54,0,0,1,1.89,5.65,41.07,41.07,0,0,1,.63,7.3l-.12.29.06,3.58.06,3.57c0,.84,0,1.7,0,2.56s-.08,1.86-.18,2.95a32.78,32.78,0,0,1-.45,3.41,27,27,0,0,1-.75,3,12,12,0,0,1-1.21,2.73,5.63,5.63,0,0,1-1.72,1.78,4,4,0,0,1-2.37.73Q432.75,502.62,432.75,480.53ZM441.6,500a6,6,0,0,0,1.43-2.46,27.79,27.79,0,0,0,1.38-6.83c.16-2.05.23-4,.23-5.74,0-1.44-.1-3.81-.32-7.09s-.35-5.51-.35-7.09l-.23-.47.11-.29a7.66,7.66,0,0,0-.67-3.21,6.24,6.24,0,0,0-1.83-2.37,4,4,0,0,0-2.54-.89,3,3,0,0,0-3.25,2.63,16.12,16.12,0,0,0-.26,2.58c0,.2,0,.74,0,1.64s0,1.74-.11,2.52-.16,1.42-.25,1.91-.05,1.4-.15,2.81-.15,2.34-.15,2.81l.06,2.37.06,2.38a52.92,52.92,0,0,0,.5,6.5,35.58,35.58,0,0,0,.85,4.53,11.49,11.49,0,0,0,1.35,3.21,2.54,2.54,0,0,0,2.11,1.43A2.87,2.87,0,0,0,441.6,500Z" transform="translate(-394.23 -252.68)"/><path d="M454.4,500.89a10.43,10.43,0,0,0,.12-2q0-5.53.17-16.38t.18-15.61c0-.16.05-.87.14-2.14l.15-1.82c0-.27.15-.41.44-.41a2.63,2.63,0,0,1,.85.21c.1,0,.15,0,.15,0,0,.87,0,1.67,0,2.37s0,1.49,0,2.37q0,3.63,0,6.53t0,6.54l-.09,2.58q-.09,1.79-.09,2.46l.06,2.55.06,2.54-.18.5.06-.06a.78.78,0,0,1,0,.24.75.75,0,0,0,0,.23,1.84,1.84,0,0,0,.18.85l-.18,5.74v.39a8.28,8.28,0,0,0,.06,1.2c0,.19.12.29.29.29.59,0,1.62,0,3.11.09l2.55.09h.17a.84.84,0,0,1,.62.33,1.09,1.09,0,0,1,.29.69c0,.45-.32.7-1,.76-1.37,0-3-.06-5-.06l.12.06a10.72,10.72,0,0,0-1.11.09,6.59,6.59,0,0,1-1.11.12C454.83,502.27,454.5,501.81,454.4,500.89Z" transform="translate(-394.23 -252.68)"/><path d="M468.43,480.53v-2.08q0-16.72,4.34-16.73a3.26,3.26,0,0,1,.82.15,14.9,14.9,0,0,0,2.46.64l1.32.24q1.17.19,2.28,2.31a17.54,17.54,0,0,1,1.89,5.65,41.07,41.07,0,0,1,.63,7.3l-.11.29.05,3.58.06,3.57c0,.84,0,1.7,0,2.56s-.07,1.86-.17,2.95c-.12,1.29-.27,2.43-.46,3.41a26.91,26.91,0,0,1-.74,3,12,12,0,0,1-1.22,2.73,5.71,5.71,0,0,1-1.71,1.78,4.07,4.07,0,0,1-2.38.73Q468.44,502.62,468.43,480.53ZM477.28,500a6,6,0,0,0,1.44-2.46,27.33,27.33,0,0,0,1.37-6.83c.16-2.05.24-4,.24-5.74,0-1.44-.11-3.81-.33-7.09s-.35-5.51-.35-7.09l-.23-.47.12-.29a7.67,7.67,0,0,0-.68-3.21,6.24,6.24,0,0,0-1.83-2.37,4,4,0,0,0-2.53-.89,3,3,0,0,0-3.25,2.63,16.14,16.14,0,0,0-.27,2.58c0,.2,0,.74,0,1.64s-.05,1.74-.12,2.52a18.14,18.14,0,0,1-.25,1.91c0,.46-.05,1.4-.15,2.81s-.14,2.34-.14,2.81l.06,2.37.05,2.38a52.92,52.92,0,0,0,.5,6.5,37.43,37.43,0,0,0,.85,4.53,11.49,11.49,0,0,0,1.35,3.21,2.57,2.57,0,0,0,2.11,1.43A2.87,2.87,0,0,0,477.28,500Z" transform="translate(-394.23 -252.68)"/><path d="M494.21,501.74a6.34,6.34,0,0,1-1.81-1.46q-.82-1.06-1.32-6.07t-.59-11.4l0-1.93q-.1-8-.22-12.25c-.06-2.81-.17-4.74-.3-5.8l.38-.85c.92.12,1.37,1.23,1.37,3.31l.18,15.91q0,1.91.32,6.36c.22,3,.32,5.09.32,6.36q0,6.82,4.52,6.82,2.78,0,3.51-12.56l.09-1.23q.4-14.68.41-24.41L501,462l-.06-.52c0-.45.34-.68,1-.68.47,0,.76.13.88.38a9.37,9.37,0,0,1,.14,2.08,29.82,29.82,0,0,1-.38,6.13,1.12,1.12,0,0,1,.06.38q0,.58-.15,2.4c-.09,1.21-.14,2-.14,2.37a5.28,5.28,0,0,0,0,.59,5.53,5.53,0,0,1,0,.61c-.06.75-.11,2.11-.15,4.11q-.09,5.88-.26,9.9a31.71,31.71,0,0,1-1.44,8.82,6.58,6.58,0,0,1-1.71,2.84,3.71,3.71,0,0,1-2.57,1A4.55,4.55,0,0,1,494.21,501.74Z" transform="translate(-394.23 -252.68)"/><path d="M521.14,502.21a11.92,11.92,0,0,1-1.54-4.15c-.56-2.23-1.07-4.76-1.54-7.57q-.59-3.54-1.38-6.77c-.48-2-.94-3-1.37-3h-.24q-1.32,0-1.32.84,0,3.26.53,13.16a41.29,41.29,0,0,0,.5,6.3l-.44,1h-.88l-.44-.46q-1-26-1-37.8a6.19,6.19,0,0,1,.07-1.11,1.79,1.79,0,0,1,.37-.76,1,1,0,0,1,.87-.41,7.42,7.42,0,0,1,4.88,1.52,5.26,5.26,0,0,1,1.86,4.31v4.36a9,9,0,0,1-.72,3,32.58,32.58,0,0,1-1.62,3.6,13.54,13.54,0,0,0-.79,1.53c0,.13.76,3.33,2.28,9.58s2.35,9.53,2.46,9.84a1.15,1.15,0,0,0,.09.22c.06.13.2.4.41.81a3.44,3.44,0,0,1,.47,1.43c0,.57-.22.85-.67.85Zm-5-24.16a7.73,7.73,0,0,0,1.39-2.91,26.18,26.18,0,0,0,.72-3.22,16.6,16.6,0,0,0,.25-2.61,16.18,16.18,0,0,0-.13-2.29,10.59,10.59,0,0,0-.48-1.9,3.07,3.07,0,0,0-1.25-1.57,4,4,0,0,0-2.18-.54q-.33,0-.51.51a2.91,2.91,0,0,0-.2,1q0,3,.12,7.27t.12,7.26l.12.12A2.58,2.58,0,0,0,516.14,478.05Z" transform="translate(-394.23 -252.68)"/><path d="M529.6,499.75c0-1.21,0-3-.08-5.36s-.09-4.18-.09-5.39c0-1.82,0-3.44,0-4.87s0-3,0-4.86q0-7.06-.29-14.88c-.16-3.6-.24-6.23-.24-7.91l.15-.24a1.72,1.72,0,0,1,.23-.32.51.51,0,0,1,.3-.23,1,1,0,0,1,.44-.06,7.69,7.69,0,0,1,6.59,3.6,13.55,13.55,0,0,1,1.57,3.55,14.54,14.54,0,0,1,.54,4,18.62,18.62,0,0,1-.88,5.51,17.26,17.26,0,0,1-2.58,5.1,7,7,0,0,1-4,2.9q0,3.3.26,9.87.24,7,.24,9.87a2.76,2.76,0,0,1-.28,1.41,1.16,1.16,0,0,1-1,.44C529.85,501.83,529.6,501.13,529.6,499.75Zm2.64-22.21.44-.47.41-.44a13.25,13.25,0,0,0,3.9-9.78,14.2,14.2,0,0,0-1.35-6.24,5.66,5.66,0,0,0-2.1-2.36,5.79,5.79,0,0,0-3.2-.87c0,2.29.11,5.71.35,10.26s.35,7.95.35,10.25l.12.12A1.75,1.75,0,0,0,532.24,477.54Z" transform="translate(-394.23 -252.68)"/><path d="M545.1,480.53v-2.08q0-16.72,4.34-16.73a3.26,3.26,0,0,1,.82.15,14.9,14.9,0,0,0,2.46.64l1.32.24q1.17.19,2.28,2.31a17.54,17.54,0,0,1,1.89,5.65,41.07,41.07,0,0,1,.63,7.3l-.11.29,0,3.58.06,3.57c0,.84,0,1.7,0,2.56s-.07,1.86-.17,2.95c-.12,1.29-.27,2.43-.46,3.41a26.91,26.91,0,0,1-.74,3,12.49,12.49,0,0,1-1.22,2.73,5.71,5.71,0,0,1-1.71,1.78,4.07,4.07,0,0,1-2.38.73Q545.11,502.62,545.1,480.53ZM554,500a6,6,0,0,0,1.44-2.46,27.33,27.33,0,0,0,1.37-6.83c.16-2.05.24-4,.24-5.74,0-1.44-.11-3.81-.33-7.09s-.35-5.51-.35-7.09l-.23-.47.12-.29a7.67,7.67,0,0,0-.68-3.21,6.24,6.24,0,0,0-1.83-2.37,4,4,0,0,0-2.53-.89,3,3,0,0,0-3.25,2.63,16.14,16.14,0,0,0-.27,2.58c0,.2,0,.74,0,1.64s0,1.74-.12,2.52a18.14,18.14,0,0,1-.25,1.91c0,.46,0,1.4-.15,2.81S547,480,547,480.47l.06,2.37.05,2.38a52.92,52.92,0,0,0,.5,6.5,37.43,37.43,0,0,0,.85,4.53,11.49,11.49,0,0,0,1.35,3.21,2.57,2.57,0,0,0,2.11,1.43A2.87,2.87,0,0,0,554,500Z" transform="translate(-394.23 -252.68)"/><path d="M567.54,502.21a48.6,48.6,0,0,1-.67-8.64c0-1,0-2.83.15-5.6.07-2.21.11-4.06.11-5.57a3.61,3.61,0,0,1-.38-1.37c.41-.69.62-2.53.62-5.54q0-10.73-.35-11.63c.37-1,.66-1.49.88-1.49h2.63a4.43,4.43,0,0,1,1.88.62,12.54,12.54,0,0,1,2.05,1.34q1.49,1.35,1.49,7.09c0,.94,0,1.76,0,2.47s-.07,1.44-.14,2.19a7.37,7.37,0,0,1-.38,1.78,10,10,0,0,1-.82,1.56,4.87,4.87,0,0,1-1.19,1.29,12.43,12.43,0,0,1-1.86,1.08,18.8,18.8,0,0,1-2.49,1v7.14c0,1.29.09,3.25.26,5.86q.24,4.17.24,5.83c0,.73-.38,1.09-1.15,1.09Zm3.53-21.94a4.4,4.4,0,0,0,1.28-1.15,9.45,9.45,0,0,0,1.32-3.63,31.55,31.55,0,0,0,.35-4v-1.61c0-.73,0-1.3-.06-1.73a9.25,9.25,0,0,0-.26-1.41,4.06,4.06,0,0,0-.62-1.32,3.07,3.07,0,0,0-1.08-.85,3.85,3.85,0,0,0-1.7-.35,1.21,1.21,0,0,0-1,.37,2.06,2.06,0,0,0-.28,1.24c0,.76,0,2.2.15,4.31s.14,3.59.14,4.33,0,1.73-.11,2.85-.12,2.05-.12,2.81l.38.59A3.21,3.21,0,0,0,571.07,480.27Z" transform="translate(-394.23 -252.68)"/></svg>